HIERARCHY
ROOT Hips
{
    OFFSET   0.000000   0.000000   0.000000
    CHANNELS 6 Xposition Yposition Zposition Zrotation Xrotation Yrotation
    JOINT Chest
    {
        OFFSET   0.000000   8.007230   0.000000
        CHANNELS 3 Zrotation Xrotation Yrotation
        JOINT Chest2
        {
            OFFSET   0.000000  22.077100   0.000000
            CHANNELS 3 Zrotation Xrotation Yrotation
            JOINT Neck
            {
                OFFSET   0.000000  23.254700   0.000000
                CHANNELS 3 Zrotation Xrotation Yrotation
                JOINT Head
                {
                    OFFSET   0.000010  14.370000   1.956610
                    CHANNELS 3 Zrotation Xrotation Yrotation
                    End Site
                    {
                        OFFSET   0.000000  19.566000   0.000000
                    }
                }
            }
            JOINT LeftCollar
            {
                OFFSET   3.911900  19.017000  -0.467063
                CHANNELS 3 Zrotation Xrotation Yrotation
                JOINT LeftShoulder
                {
                    OFFSET  10.383700   0.000000   0.000000
                    CHANNELS 3 Zrotation Xrotation Yrotation
                    JOINT LeftElbow
                    {
                        OFFSET  26.662100   0.001671   0.000522
                        CHANNELS 3 Zrotation Xrotation Yrotation
                        JOINT LeftWrist
                        {
                            OFFSET  28.869000   0.000037  -0.000114
                            CHANNELS 3 Zrotation Xrotation Yrotation
                            JOINT LeftFinger0
                            {
                                OFFSET   2.044650  -2.323450   3.252850
                                CHANNELS 3 Zrotation Xrotation Yrotation
                                JOINT LeftFinger01
                                {
                                    OFFSET   3.088140   0.000000   0.000000
                                    CHANNELS 3 Zrotation Xrotation Yrotation
                                    JOINT LeftFinger02
                                    {
                                        OFFSET   2.639460   0.000000   0.000000
                                        CHANNELS 3 Zrotation Xrotation Yrotation
                                        End Site
                                        {
                                            OFFSET   2.582190   0.000000   0.000000
                                        }
                                    }
                                }
                            }
                            JOINT LeftFinger1
                            {
                                OFFSET   8.364480   0.000000   3.252850
                                CHANNELS 3 Zrotation Xrotation Yrotation
                                JOINT LeftFinger11
                                {
                                    OFFSET   4.646930   0.000000   0.000000
                                    CHANNELS 3 Zrotation Xrotation Yrotation
                                    JOINT LeftFinger12
                                    {
                                        OFFSET   2.323470   0.000000   0.000000
                                        CHANNELS 3 Zrotation Xrotation Yrotation
                                        End Site
                                        {
                                            OFFSET   2.273050   0.000000   0.000000
                                        }
                                    }
                                }
                            }
                            JOINT LeftFinger2
                            {
                                OFFSET   8.364490   0.000016   1.078090
                                CHANNELS 3 Zrotation Xrotation Yrotation
                                JOINT LeftFinger21
                                {
                                    OFFSET   5.111620   0.000000   0.000000
                                    CHANNELS 3 Zrotation Xrotation Yrotation
                                    JOINT LeftFinger22
                                    {
                                        OFFSET   2.788150   0.000013   0.000000
                                        CHANNELS 3 Zrotation Xrotation Yrotation
                                        End Site
                                        {
                                            OFFSET   2.727660   0.000000   0.000000
                                        }
                                    }
                                }
                            }
                            JOINT LeftFinger3
                            {
                                OFFSET   7.899780   0.000016  -1.078090
                                CHANNELS 3 Zrotation Xrotation Yrotation
                                JOINT LeftFinger31
                                {
                                    OFFSET   4.646930   0.000000   0.000000
                                    CHANNELS 3 Zrotation Xrotation Yrotation
                                    JOINT LeftFinger32
                                    {
                                        OFFSET   2.323470   0.000000   0.000000
                                        CHANNELS 3 Zrotation Xrotation Yrotation
                                        End Site
                                        {
                                            OFFSET   2.273050   0.000000   0.000000
                                        }
                                    }
                                }
                            }
                            JOINT LeftFinger4
                            {
                                OFFSET   7.435080   0.000000  -3.252850
                                CHANNELS 3 Zrotation Xrotation Yrotation
                                JOINT LeftFinger41
                                {
                                    OFFSET   3.717550   0.000000   0.000000
                                    CHANNELS 3 Zrotation Xrotation Yrotation
                                    JOINT LeftFinger42
                                    {
                                        OFFSET   1.858760   0.000000   0.000000
                                        CHANNELS 3 Zrotation Xrotation Yrotation
                                        End Site
                                        {
                                            OFFSET   1.818440   0.000000   0.000000
                                        }
                                    }
                                }
                            }
                        }
                    }
                }
            }
            JOINT RightCollar
            {
                OFFSET  -3.911900  19.017000  -0.467064
                CHANNELS 3 Zrotation Xrotation Yrotation
                JOINT RightShoulder
                {
                    OFFSET -10.383700   0.000000   0.000000
                    CHANNELS 3 Zrotation Xrotation Yrotation
                    JOINT RightElbow
                    {
                        OFFSET -26.662100   0.001633   0.000260
                        CHANNELS 3 Zrotation Xrotation Yrotation
                        JOINT RightWrist
                        {
                            OFFSET -28.869000  -0.000045  -0.000080
                            CHANNELS 3 Zrotation Xrotation Yrotation
                            JOINT RightFinger0
                            {
                                OFFSET  -2.044660  -2.323490   3.252850
                                CHANNELS 3 Zrotation Xrotation Yrotation
                                JOINT RightFinger01
                                {
                                    OFFSET  -3.088140   0.000000   0.000000
                                    CHANNELS 3 Zrotation Xrotation Yrotation
                                    JOINT RightFinger02
                                    {
                                        OFFSET  -2.639450   0.000000   0.000000
                                        CHANNELS 3 Zrotation Xrotation Yrotation
                                        End Site
                                        {
                                            OFFSET  -2.582190   0.000000   0.000000
                                        }
                                    }
                                }
                            }
                            JOINT RightFinger1
                            {
                                OFFSET  -8.364480   0.000000   3.252850
                                CHANNELS 3 Zrotation Xrotation Yrotation
                                JOINT RightFinger11
                                {
                                    OFFSET  -4.646920   0.000000   0.000000
                                    CHANNELS 3 Zrotation Xrotation Yrotation
                                    JOINT RightFinger12
                                    {
                                        OFFSET  -2.323470   0.000000   0.000000
                                        CHANNELS 3 Zrotation Xrotation Yrotation
                                        End Site
                                        {
                                            OFFSET  -2.273050   0.000000   0.000000
                                        }
                                    }
                                }
                            }
                            JOINT RightFinger2
                            {
                                OFFSET  -8.364480   0.000000   1.078090
                                CHANNELS 3 Zrotation Xrotation Yrotation
                                JOINT RightFinger21
                                {
                                    OFFSET  -5.111610   0.000000   0.000000
                                    CHANNELS 3 Zrotation Xrotation Yrotation
                                    JOINT RightFinger22
                                    {
                                        OFFSET  -2.788160   0.000000   0.000000
                                        CHANNELS 3 Zrotation Xrotation Yrotation
                                        End Site
                                        {
                                            OFFSET  -2.727660   0.000000   0.000000
                                        }
                                    }
                                }
                            }
                            JOINT RightFinger3
                            {
                                OFFSET  -7.899780   0.000000  -1.078090
                                CHANNELS 3 Zrotation Xrotation Yrotation
                                JOINT RightFinger31
                                {
                                    OFFSET  -4.646930   0.000000   0.000000
                                    CHANNELS 3 Zrotation Xrotation Yrotation
                                    JOINT RightFinger32
                                    {
                                        OFFSET  -2.323470   0.000000   0.000000
                                        CHANNELS 3 Zrotation Xrotation Yrotation
                                        End Site
                                        {
                                            OFFSET  -2.273050   0.000000   0.000000
                                        }
                                    }
                                }
                            }
                            JOINT RightFinger4
                            {
                                OFFSET  -7.435090   0.000000  -3.252850
                                CHANNELS 3 Zrotation Xrotation Yrotation
                                JOINT RightFinger41
                                {
                                    OFFSET  -3.717550   0.000000   0.000000
                                    CHANNELS 3 Zrotation Xrotation Yrotation
                                    JOINT RightFinger42
                                    {
                                        OFFSET  -1.858760   0.000000   0.000000
                                        CHANNELS 3 Zrotation Xrotation Yrotation
                                        End Site
                                        {
                                            OFFSET  -1.818440   0.000000   0.000000
                                        }
                                    }
                                }
                            }
                        }
                    }
                }
            }
        }
    }
    JOINT LeftHip
    {
        OFFSET   9.782990   0.000000   0.000000
        CHANNELS 3 Zrotation Xrotation Yrotation
        JOINT LeftKnee
        {
            OFFSET  -0.000063 -41.789100   0.001657
            CHANNELS 3 Zrotation Xrotation Yrotation
            JOINT LeftAnkle
            {
                OFFSET   0.000078 -41.133200  -0.000113
                CHANNELS 3 Zrotation Xrotation Yrotation
                JOINT LeftToe
                {
                    OFFSET   0.000000  -6.358970  14.674500
                    CHANNELS 3 Zrotation Xrotation Yrotation
                    End Site
                    {
                        OFFSET   0.000000   0.000000   3.913200
                    }
                }
            }
        }
    }
    JOINT RightHip
    {
        OFFSET  -9.782990   0.000000   0.000000
        CHANNELS 3 Zrotation Xrotation Yrotation
        JOINT RightKnee
        {
            OFFSET   0.000053 -41.789200   0.000277
            CHANNELS 3 Zrotation Xrotation Yrotation
            JOINT RightAnkle
            {
                OFFSET   0.000030 -41.133200  -0.000150
                CHANNELS 3 Zrotation Xrotation Yrotation
                JOINT RightToe
                {
                    OFFSET   0.000000  -6.358960  14.674500
                    CHANNELS 3 Zrotation Xrotation Yrotation
                    End Site
                    {
                        OFFSET   0.000000   0.000000   3.913200
                    }
                }
            }
        }
    }
}
MOTION
Frames: 4
Frame Time:   0.016667
  1.022890  89.582200   1.780920  -2.510020  -9.522580  -0.476836   1.453860   6.168350  -0.979159   3.040820  12.308600  -2.135150   0.879349  -1.439080   0.021603   1.444870  -2.903970   9.088920  -5.881920  -0.436183   2.229800 -73.409700  14.391800  -1.515280  -1.556240  -5.306760 -20.803700  11.774900 -10.108800   2.067210  38.681500  25.787000 -56.599000 -26.886200   0.009604   0.004954  -8.447860   0.001896  -0.005405 -28.710900   4.852580  -8.776510 -23.808000  -0.010239   0.000521 -16.665600   0.000404  -0.002124 -28.360000  -1.685270   3.119030 -35.133500  -0.002373  -0.010933 -23.398900  -0.010176  -0.012604 -27.857200  -1.658040   3.133580 -31.388000   0.000622  -0.000462 -20.904400  -0.012268  -0.001000 -33.626400  -1.964770   2.951070 -50.515500  -0.002403  -0.000070 -33.643300  -0.001286  -0.000246   9.061440   0.700410   8.790920  68.226500  18.229300  -1.237430  -4.400970  -1.600430  17.724400 -14.990000  -9.145120  -1.346440 -39.642800  22.560300  56.373700  22.054000  -0.005926  -0.001707   6.022300   0.015241  -0.001139  25.797800   3.938260   8.082010  21.334500   0.001577  -0.007799  14.934100  -0.000597  -0.005808  28.626500   0.318708   0.584000  37.733700  -0.004279   0.003889  25.130700  -0.003162   0.004051  28.197200   0.314430   0.586313  33.438100  -0.003010   0.003789  22.269800  -0.003406   0.004292  34.785300   0.286541   0.426575  52.179500   0.002796   0.007616  34.751600  -0.001425   0.007966   2.186910  11.945000   7.809250   1.232920  -0.025775  10.338700  -1.498130  -3.317180   3.057520   0.000000   0.000000   0.000000   2.376210  10.752500   0.482335   0.242606   2.471040  -9.686310  -0.353961  -5.086350  -1.643670   0.000000   0.000000  -0.000000
  1.019020  89.582100   1.779530  -2.510750  -9.525970  -0.480967   1.453770   6.172940  -0.979329   3.040790  12.317800  -2.135680   0.869937  -1.432000   0.021545   1.430260  -2.895750   9.087280  -5.884780  -0.437630   2.222270 -73.404400  14.386700  -1.511370  -1.557330  -5.293750 -20.789400  11.774800 -10.091300   2.065730  38.672100  25.764500 -56.580500 -26.884800   0.009601   0.004953  -8.447760   0.001895  -0.005406 -28.711600   4.861300  -8.793040 -23.808100  -0.010232   0.000520 -16.665700   0.000402  -0.002127 -28.360700  -1.679680   3.108460 -35.151500  -0.002343  -0.010944 -23.411000  -0.010168  -0.012605 -27.857900  -1.652630   3.122920 -31.409600   0.000662  -0.000450 -20.918800  -0.012263  -0.000952 -33.630500  -1.958340   2.940990 -50.521100  -0.002372  -0.000035 -33.647100  -0.001296  -0.000227   9.061690   0.700227   8.791190  68.214900  18.242200  -1.237690  -4.395710  -1.616830  17.724900 -14.979300  -9.135230  -1.346400 -39.645500  22.562900  56.368800  22.054600  -0.005933  -0.001700   6.023960   0.015242  -0.001151  25.797200   3.939920   8.088060  21.334500   0.001576  -0.007802  14.934100  -0.000600  -0.005808  28.626400   0.319531   0.585530  37.719500  -0.004279   0.003883  25.121300  -0.003166   0.004049  28.197200   0.315221   0.587864  33.416100  -0.003009   0.003780  22.255000  -0.003408   0.004290  34.776300   0.286544   0.426926  52.166000   0.002797   0.007610  34.742600  -0.001428   0.007964   2.193460  11.925600   7.808620   1.232100   0.014504  10.338100  -1.500970  -3.337150   3.063130  -0.000000   0.000000  -0.000000   2.375950  10.750700   0.482312   0.247003   2.471280  -9.686710  -0.359614  -5.085730  -1.638560   0.000000   0.000000  -0.000000
  1.012270  89.582000   1.775680  -2.511990  -9.532870  -0.487809   1.453660   6.182160  -0.979508   3.040820  12.336300  -2.136280   0.850707  -1.424910   0.021137   1.399510  -2.887580   9.079320  -5.896640  -0.444339   2.196550 -73.386700  14.370300  -1.501780  -1.557780  -5.280980 -20.768000  11.772900 -10.064000   2.055970  38.655800  25.725800 -56.542600 -26.883400   0.009590   0.004948  -8.447670   0.001890  -0.005407 -28.713400   4.873750  -8.816190 -23.808200  -0.010217   0.000518 -16.665700   0.000393  -0.002137 -28.361700  -1.670380   3.090940 -35.169600  -0.002272  -0.010968 -23.423000  -0.010151  -0.012606 -27.858900  -1.643590   3.105260 -31.433400   0.000753  -0.000423 -20.934700  -0.012249  -0.000844 -33.637400  -1.947680   2.924250 -50.530600  -0.002297   0.000000 -33.653400  -0.001335  -0.000159   9.061950   0.700043   8.791460  68.198000  18.255100  -1.237940  -4.390430  -1.633240  17.725500 -14.968600  -9.125340  -1.346370 -39.648200  22.565500  56.363900  22.059000  -0.005947  -0.001693   6.029500   0.015248  -0.001162  25.796500   3.941590   8.094110  21.334500   0.001566  -0.007809  14.934100  -0.000604  -0.005808  28.626400   0.320354   0.587060  37.705400  -0.004276   0.003868  25.111800  -0.003175   0.004043  28.197300   0.316012   0.589415  33.393500  -0.003008   0.003762  22.240000  -0.003414   0.004285  34.767300   0.286548   0.427276  52.152500   0.002799   0.007594  34.733600  -0.001436   0.007960   2.202080  11.906100   7.807600   1.229750   0.067881  10.337600  -1.504750  -3.358770   3.072820   0.000000   0.000000  -0.000000   2.375690  10.749000   0.482243   0.253670   2.472980  -9.687120  -0.368690  -5.085130  -1.630380   0.000000   0.000000   0.000000
  1.006170  89.581900   1.769190  -2.513030  -9.540720  -0.493251   1.453620   6.193340  -0.979408   3.041000  12.358600  -2.136270   0.831351  -1.428120   0.019859   1.367720  -2.894190   9.064810  -5.922450  -0.463938   2.145450 -73.352700  14.341400  -1.483020  -1.558500  -5.305490 -20.754500  11.760300 -10.051500   2.028320  38.630500  25.679800 -56.490000 -26.891300   0.009567   0.004915  -8.448650   0.001870  -0.005392 -28.716800   4.879950  -8.825690 -23.808000  -0.010200   0.000514 -16.665600   0.000376  -0.002155 -28.362500  -1.662250   3.075790 -35.169500  -0.002167  -0.011004 -23.422900  -0.010127  -0.012606 -27.859800  -1.635620   3.090030 -31.436000   0.000886  -0.000383 -20.936400  -0.012225  -0.000687 -33.644100  -1.938520   2.909540 -50.540100  -0.002187   0.000000 -33.659700  -0.001423  -0.000013   9.061800   0.700608   8.791390  68.188500  18.245900  -1.237460  -4.388350  -1.623660  17.723400 -14.974500  -9.127340  -1.351330 -39.636200  22.562000  56.363200  22.080800  -0.005958  -0.001698   6.041450   0.015262  -0.001155  25.808100   3.938240   8.081660  21.343500   0.001540  -0.007819  14.940400  -0.000605  -0.005818  28.626500   0.311915   0.571590  37.707500  -0.004273   0.003848  25.113200  -0.003187   0.004031  28.197600   0.307684   0.573880  33.392800  -0.002998   0.003743  22.239700  -0.003426   0.004277  34.767800   0.286549   0.424817  52.153200   0.002804   0.007570  34.734100  -0.001453   0.007954   2.206150  11.906600   7.803400   1.228190   0.081224  10.337600  -1.505230  -3.360690   3.082150   0.000000   0.000000   0.000000   2.377350  10.750900   0.482107   0.257882   2.477110  -9.684930  -0.375471  -5.085160  -1.623200  -0.000000   0.000000   0.000000
